<svg height="491pt" viewBox="0 -6 491.2 491" width="491pt" xmlns="http://www.w3.org/2000/svg"><path d="m59.257812 418.445312-5.65625-5.648437-5.65625 5.664063c-10.257812 9.808593-26.417968 9.808593-36.671874 0l-11.273438 11.3125c14.367188 14.335937 36.941406 16.328124 53.601562 4.726562 14.5 9.792969 33.496094 9.792969 48 0 14.5 9.792969 33.496094 9.792969 48 0 14.5 9.792969 33.496094 9.792969 48 0 14.5 9.792969 33.496094 9.792969 48 0 14.5 9.792969 33.496094 9.792969 48 0 14.5 9.792969 33.496094 9.792969 48 0 14.5 9.792969 33.496094 9.792969 48 0 14.5 9.792969 33.496094 9.792969 48 0 16.660157 11.597656 39.234376 9.597656 53.597657-4.742188l-11.269531-11.257812c-10.257813 9.808594-26.417969 9.808594-36.671876 0l-5.65625-5.703125-5.65625 5.664063c-9.4375 8.96875-23.988281 9.761718-34.34375 1.871093v-84.230469h40v-55l30.246094-121h17.753906v-48h-61.417968l-42.582032 106.460938v-34.460938c0-4.417968-3.582031-8-8-8h-24v-32c0-4.417968-3.582031-8-8-8h-24v-128c0-4.417968-3.582031-8-8-8h-32c-4.417968 0-8 3.582032-8 8v192h-16v-56c0-4.417968-3.582031-8-8-8h-16v-56h-16v56h-16v-96h-16v96h-16v-96h-16v96h-4.113281l-85.601562-108.945312c-1.515625-1.929688-3.832031-3.054688-6.285157-3.054688h-40c-4.417968 0-8 3.582032-8 8v24c0 4.417969 3.582032 8 8 8v72c0 4.417969 3.582032 8 8 8h8c4.417969 0 8 3.582032 8 8 0 4.417969-3.582031 8-8 8-4.417968 0-8-3.582031-8-8h-16c0 13.253907 10.742188 24 24 24 13.253907 0 24-10.746093 24-24 0-13.257812-10.746093-24-24-24v-64h4.0625l73.839844 96h-29.902344c-4.417968 0-8 3.582032-8 8v32h-56c-4.417968 0-8 3.582032-8 8v32c0 4.417969 3.582032 8 8 8h8v32c0 4.417969 3.582032 8 8 8h8v80h16v-32h40v84.230469c-10.363281 7.882813-24.910156 7.082031-34.34375-1.886719zm98.34375-178.34375h48v32h-48zm128-192h16v224h-16zm162.933594 102.246094-29.0625 16.617188 13.046875-32.632813zm.753906 18-13.234374 52.929688-19.542969-34.203125zm-41.289062 119.753906-34.398438 29.460938-34.402343-29.460938zm-11.503906-16 31.199218-17.34375-4.34375 17.34375zm-225.296875 48 34.402343-29.464843 34.398438 29.464843zm146.402343-29.464843 34.398438 29.464843h-68.800781zm0-18.535157v-80h16v80zm-40 16h18.398438l-34.398438 29.460938-34.402343-29.460938zm-128 0h34.398438l-34.398438 29.460938-34.402343-29.460938zm149.65625 130.34375-5.65625-5.648437-5.65625 5.664063c-10.257812 9.808593-26.417968 9.808593-36.671874 0l-5.671876-5.664063-5.65625 5.664063c-10.257812 9.808593-26.417968 9.808593-36.671874 0l-5.671876-5.664063-5.65625 5.664063c-7.011718 6.691406-17.121093 9.007812-26.34375 6.03125v-88.390626h16v56h16v-56h16v32h16v-32h96v88.390626c-9.226562 2.964843-19.335937.644531-26.34375-6.046876zm82.34375 1.886719c-10.363281 7.882813-24.910156 7.082031-34.34375-1.886719l-5.65625-5.601562v-76.742188h40zm16-100.230469h-2.402343l26.402343-22.609374v22.609374zm72-176h-4.691406l-16-16h20.691406zm-63.664062 56.703126 20.703125 36.230468-45.039063 25.023438v-.429688zm-40.335938-8.703126v66.46875l-5.417968 13.53125h-10.582032v-80zm-32-40v24h-16v-24zm-32-136v16h-16v-16zm-48 216v-16h16v56h-48v-32h24c4.417969 0 8-3.582031 8-8zm-16-8h-112v-72h112zm-200-176h-16v-8h28.109376l75.433593 96h-7.542969c-2.371093.023438-4.605468 1.113282-6.082031 2.964844l-67.574219-87.847656c-1.515624-1.96875-3.859374-3.121094-6.34375-3.117188zm48 128h24v56c0 4.417969 3.582032 8 8 8h24v32h-64v-24h8c4.417969 0 8-3.582031 8-8v-32c0-4.417968-3.582031-8-8-8zm-64 40h56v16h-56zm16 32h24v24h-24zm32 40h4.6875l-20.6875 20.6875v-20.6875zm-4.691406 32 29.113282-29.105468 33.976562 29.105468zm84.691406 16v76.710938l-5.65625 5.664062c-9.441406 8.964844-23.992187 9.75-34.34375 1.855469v-84.230469zm0 0"/><path d="m443.257812 456.492188-5.671874-5.601563-5.65625 5.65625c-10.257813 9.808594-26.417969 9.808594-36.671876 0l-5.671874-5.597656-5.65625 5.65625c-10.257813 9.808593-26.417969 9.808593-36.671876 0l-5.671874-5.601563-5.65625 5.65625c-10.257813 9.808594-26.417969 9.808594-36.671876 0l-5.671874-5.601562-5.65625 5.65625c-10.257813 9.808594-26.417969 9.808594-36.671876 0l-5.671874-5.597656-5.65625 5.65625c-10.257813 9.808593-26.417969 9.808593-36.671876 0l-5.671874-5.601563-5.65625 5.65625c-10.257813 9.808594-26.417969 9.808594-36.671876 0l-5.671874-5.601563-5.65625 5.65625c-10.257813 9.8125-26.417969 9.8125-36.671876 0l-5.671874-5.597656-5.65625 5.65625c-10.257813 9.808594-26.417969 9.808594-36.671876 0l-5.65625-6.089844-5.65625 5.65625c-10.257812 9.808594-26.417968 9.808594-36.671874 0l-11.273438 11.3125c14.363281 14.34375 36.9375 16.339844 53.601562 4.742188 14.496094 9.800781 33.5 9.800781 48 0 14.496094 9.800781 33.5 9.800781 48 0 14.496094 9.800781 33.5 9.800781 48 0 14.496094 9.800781 33.5 9.800781 48 0 14.496094 9.800781 33.5 9.800781 48 0 14.496094 9.800781 33.5 9.800781 48 0 14.496094 9.800781 33.5 9.800781 48 0 14.496094 9.800781 33.5 9.800781 48 0 16.660157 11.597656 39.234376 9.601562 53.597657-4.742188l-11.328125-11.296874c-10.257813 9.765624-26.375 9.75-36.613282-.03125zm0 0"/><path d="m141.601562 168.101562h16v16h-16zm0 0"/><path d="m173.601562 168.101562h16v16h-16zm0 0"/><path d="m205.601562 168.101562h16v16h-16zm0 0"/><path d="m141.601562 192.101562h80v16h-80zm0 0"/><path d="m446.488281 4.429688-20.800781 40.308593c-6.839844 13.40625-4.839844 29.621094 5.046875 40.960938 5.773437 6.609375 14.121094 10.402343 22.898437 10.402343 8.773438 0 17.121094-3.792968 22.894532-10.402343 9.890625-11.339844 11.890625-27.554688 5.046875-40.960938l-20.796875-40.308593c-1.507813-2.507813-4.21875-4.042969-7.144532-4.042969-2.925781 0-5.636718 1.535156-7.144531 4.042969zm18.144531 70.535156c-2.796874 3.15625-6.8125 4.964844-11.03125 4.964844s-8.238281-1.808594-11.035156-4.964844c-5.480468-6.363282-6.542968-15.421875-2.6875-22.878906l13.722656-26.5625 13.726563 26.578124c3.851563 7.457032 2.785156 16.503907-2.695313 22.863282zm0 0"/><path d="m349.601562 352.101562h16v16h-16zm0 0"/><path d="m357.601562 384.101562h16v16h-16zm0 0"/><path d="m117.601562 352.101562h16v16h-16zm0 0"/><path d="m117.601562 384.101562h16v16h-16zm0 0"/></svg>