<svg height="512pt" viewBox="0 -17 512 512" width="512pt" xmlns="http://www.w3.org/2000/svg"><path d="m494.441406 428.414062h-1.824218v-21.769531c0-9.679687-7.878907-17.554687-17.5625-17.554687h-10.269532v-33.242188c0-13.355468-9.257812-24.582031-21.691406-27.621094l-8.296875-64.378906c-.535156-4.136718-4.332031-7.058594-8.460937-6.527344-4.140626.53125-7.0625 4.320313-6.527344 8.460938l7.941406 61.628906h-24.234375v-44.292968c0-9.679688-7.878906-17.558594-17.5625-17.558594h-10.835937v-27.714844c0-9.683594-7.878907-17.558594-17.5625-17.558594h-4.929688l8.167969-67.304687h44.417969l10.144531 78.492187c.492187 3.8125 3.742187 6.589844 7.484375 6.589844.324218 0 .652344-.019531.980468-.0625 4.140626-.535156 7.0625-4.324219 6.523438-8.464844l-10.164062-78.65625c5.492187-2.972656 9.234374-8.785156 9.234374-15.457031v-11.84375c0-8.339844-5.851562-15.324219-13.660156-17.105469v-19.273437c0-.386719.355469-.742188.746094-.742188h11.367188c8.617187 0 16.527343-4.308593 21.304687-11.304687h6.582031c20.511719 0 37.199219-16.851563 37.199219-37.5625 0-20.726563-16.6875-37.589844-37.199219-37.589844h-77.230468c-19.355469 0-35.304688 15.039062-37.019532 34.171875h-.050781c-14.273437 0-25.890625 11.726563-25.890625 26.140625 0 14.417969 11.613281 26.144531 25.890625 26.144531h7.992187c.394532 0 .75.355469.75.742188v19.273437c-7.8125 1.78125-13.660156 8.765625-13.660156 17.105469v11.84375c0 6.691406 3.761719 12.515625 9.28125 15.476563l-8.421875 69.386718h-30.921875v-9.132812c0-4.171875-3.382812-7.554688-7.554687-7.554688-4.175781 0-7.558594 3.382813-7.558594 7.554688v9.132812h-27.824219v-8.367187c0-4.171875-3.382812-7.558594-7.554687-7.558594-4.175781 0-7.558594 3.386719-7.558594 7.558594v8.367187h-28.640625v-8.367187c0-4.171875-3.382812-7.558594-7.558594-7.558594-4.171875 0-7.558594 3.386719-7.558594 7.558594v8.367187h-31.023437l-8.972656-69.410156c5.492187-2.96875 9.234375-8.78125 9.234375-15.453125v-11.84375c0-8.339844-5.851563-15.324219-13.660156-17.105469v-19.273437c0-.390625.355468-.742188.746093-.742188h11.367188c8.617187 0 16.527343-4.308593 21.304687-11.304687h6.609375c20.496094 0 37.171875-16.851563 37.171875-37.5625 0-20.726563-16.675781-37.589844-37.171875-37.589844h-77.230469c-19.371093 0-35.332031 15.039062-37.046874 34.167969h-.046876c-14.277343 0-25.894531 11.730469-25.894531 26.144531s11.613281 26.144531 25.894531 26.144531h7.992188c.390625 0 .746094.351563.746094.742188v19.273437c-7.8125 1.78125-13.660156 8.765625-13.660156 17.105469v11.84375c0 6.691406 3.765624 12.515625 9.285156 15.476563l-21.476563 177.335937c-12.410156 3.054687-21.644531 14.273437-21.644531 27.609375v33.246094l-10.273438-.003906c-9.679687 0-17.558593 7.878906-17.558593 17.558593v21.765625h-1.824219c-9.667969.003906-17.53125 7.878906-17.53125 17.5625v14.476563c0 9.683593 7.863281 17.558593 17.53125 17.558593h476.910156c9.679688 0 17.558594-7.875 17.558594-17.558593v-14.476563c0-9.683594-7.878906-17.558594-17.558594-17.558594zm-58.097656-85.890624c7.347656 0 13.328125 5.976562 13.328125 13.324218v33.242188h-74.554687v-46.566406zm-50.390625-61.847657c1.324219 0 2.445313 1.117188 2.445313 2.441407v44.289062h-13.28125v-46.730469zm28.351563-145.253906c0 1.324219-1.121094 2.441406-2.449219 2.441406h-57.753907c-1.351562 0-2.449218-1.09375-2.449218-2.441406v-11.84375c0-1.347656 1.097656-2.445313 2.449218-2.445313h57.753907c1.328125 0 2.449219 1.121094 2.449219 2.445313zm-64.855469-64.082031h-7.988281c-5.945313 0-10.78125-4.945313-10.78125-11.027344s4.835937-11.03125 10.78125-11.03125h7.734374c2.195313 0 4.28125-.953125 5.71875-2.613281 1.4375-1.660157 2.078126-3.863281 1.761719-6.039063-.136719-.917968-.203125-1.941406-.203125-3.039062 0-12.394532 9.894532-22.476563 22.054688-22.476563h77.230468c12.175782 0 22.085938 10.082031 22.085938 22.476563 0 12.375-9.910156 22.445312-22.085938 22.445312h-11.023437c-3.039063 0-5.777344 1.816406-6.960937 4.613282-1.722657 4.066406-5.609376 6.691406-9.902344 6.691406h-11.363282c-8.746093 0-15.863281 7.113281-15.863281 15.859375v18.820312h-35.328125v-18.820312c-.003906-8.746094-7.121094-15.859375-15.867187-15.859375zm-255.511719 0h-7.992188c-5.941406 0-10.777343-4.945313-10.777343-11.027344s4.835937-11.03125 10.777343-11.03125h7.738282c2.167968 0 4.230468-.929688 5.664062-2.554688s2.101563-3.789062 1.835938-5.9375c-.152344-1.214843-.230469-2.261718-.230469-3.199218 0-12.394532 9.910156-22.476563 22.089844-22.476563h77.226562c12.164063 0 22.058594 10.082031 22.058594 22.476563 0 12.375-9.894531 22.445312-22.058594 22.445312h-11.050781c-3.039062 0-5.777344 1.816406-6.960938 4.613282-1.722656 4.066406-5.605468 6.691406-9.902343 6.691406h-11.367188c-8.746093 0-15.859375 7.113281-15.859375 15.859375v18.820312h-35.332031v-18.820312c0-8.746094-7.113281-15.859375-15.859375-15.859375zm64.851562 52.238281v11.84375c0 1.324219-1.121093 2.441406-2.449218 2.441406h-57.753906c-1.328126 0-2.445313-1.117187-2.445313-2.441406v-11.84375c0-1.324219 1.117187-2.445313 2.445313-2.445313h57.753906c1.328125 0 2.449218 1.121094 2.449218 2.445313zm-53.507812 29.402344h44.417969l8.699219 67.304687h-3.984376c-9.683593 0-17.558593 7.875-17.558593 17.558594v27.714844h-10.835938c-9.683593 0-17.5625 7.875-17.5625 17.558594v44.289062h-24.300781zm31.574219 127.695312v46.734375h-13.285157v-44.292968c0-1.324219 1.121094-2.441407 2.445313-2.441407zm-74.554688 75.167969c0-7.34375 5.976563-13.320312 13.328125-13.320312h61.226563v46.5625h-74.554688zm-27.832031 50.800781c0-1.324219 1.121094-2.441406 2.445312-2.441406l199.65625.058594c4.175782 0 7.558594-3.382813 7.558594-7.558594.003906-4.171875-3.378906-7.558594-7.554687-7.558594l-84.605469-.023437v-151.277344c0-1.324219 1.121094-2.445312 2.445312-2.445312h12.554688c.007812 0 .011719.003906.019531.003906.003907 0 .007813-.003906.015625-.003906h177.09375s.003906.003906.007813.003906c.003906 0 .007812-.003906.011719-.003906h13.441406c1.324218 0 2.445312 1.121093 2.445312 2.445312v151.246094h-88.800781c-4.171875 0-7.554687 3.382812-7.554687 7.554687 0 4.175781 3.382812 7.558594 7.554687 7.558594h203.851563c1.324218 0 2.445312 1.121094 2.445312 2.445313v21.765624h-443.03125zm462.417969 53.804688c0 1.324219-1.121094 2.445312-2.445313 2.445312h-476.910156c-1.308594 0-2.417969-1.121093-2.417969-2.445312v-14.476563c0-1.328125 1.109375-2.445312 2.417969-2.445312h476.910156c1.324219 0 2.445313 1.117187 2.445313 2.445312zm0 0"/><path d="m310.503906 318.816406c0-30.070312-24.457031-54.53125-54.519531-54.53125-30.058594 0-54.515625 24.460938-54.515625 54.53125 0 30.050782 24.457031 54.503906 54.515625 54.503906 30.0625 0 54.519531-24.453124 54.519531-54.503906zm-54.519531 39.386719c-21.726563 0-39.402344-17.667969-39.402344-39.386719 0-21.734375 17.675781-39.417968 39.402344-39.417968s39.402344 17.683593 39.402344 39.417968c.003906 21.71875-17.675781 39.386719-39.402344 39.386719zm0 0"/><path d="m264.289062 311.144531h-3.925781l4.421875-8.167969c1.984375-3.671874.621094-8.257812-3.050781-10.242187-3.667969-1.988281-8.253906-.621094-10.242187 3.046875l-10.457032 19.324219c-1.269531 2.339843-1.210937 5.175781.152344 7.464843 1.363281 2.285157 3.832031 3.6875 6.492188 3.6875h3.332031l-4.8125 8.105469c-2.128907 3.589844-.949219 8.226563 2.640625 10.355469 1.210937.71875 2.539062 1.0625 3.851562 1.0625 2.578125 0 5.09375-1.320312 6.503906-3.703125l11.59375-19.519531c1.386719-2.335938 1.410157-5.234375.066407-7.597656-1.339844-2.355469-3.847657-3.816407-6.566407-3.816407zm0 0"/><path d="m311.644531 267.328125h26.613281c4.171876 0 7.554688-3.382813 7.554688-7.558594 0-4.171875-3.382812-7.554687-7.554688-7.554687h-26.613281c-4.171875 0-7.554687 3.382812-7.554687 7.554687 0 4.175781 3.382812 7.558594 7.554687 7.558594zm0 0"/><path d="m204.597656 259.769531c0-4.171875-3.382812-7.554687-7.558594-7.554687h-26.613281c-4.171875 0-7.554687 3.382812-7.554687 7.554687 0 4.175781 3.382812 7.558594 7.554687 7.558594h26.613281c4.175782 0 7.558594-3.382813 7.558594-7.558594zm0 0"/></svg>